<?xml version="1.0" encoding="UTF-8" standalone="no"?>
<!DOCTYPE svg PUBLIC "-//W3C//DTD SVG 1.1//EN" "http://www.w3.org/Graphics/SVG/1.1/DTD/svg11.dtd">
<svg width="100%" height="100%" viewBox="0 0 32 32" version="1.1" xmlns="http://www.w3.org/2000/svg" xmlns:xlink="http://www.w3.org/1999/xlink" xml:space="preserve" xmlns:serif="http://www.serif.com/" style="fill-rule:evenodd;clip-rule:evenodd;stroke-linejoin:round;stroke-miterlimit:2;">
	<path d="M16,0C24.831,0 32,7.169 32,16C32,24.831 24.831,32 16,32C7.169,32 0,24.831 0,16C0,7.169 7.169,0 16,0ZM18.4,27.759C17.625,27.917 16.822,28 16,28C9.377,28 4,22.623 4,16C4,9.377 9.377,4 16,4C16.822,4 17.625,4.083 18.4,4.241C14.75,5.354 12,10.199 12,16C12,21.801 14.75,26.646 18.4,27.759Z" style="fill:rgb(61,61,61);"/>
</svg>
