<?xml version="1.0" encoding="UTF-8" standalone="no"?>
<!DOCTYPE svg PUBLIC "-//W3C//DTD SVG 1.1//EN" "http://www.w3.org/Graphics/SVG/1.1/DTD/svg11.dtd">
<svg width="100%" height="100%" viewBox="0 0 64 64" version="1.1" xmlns="http://www.w3.org/2000/svg" xmlns:xlink="http://www.w3.org/1999/xlink" xml:space="preserve" xmlns:serif="http://www.serif.com/" style="fill-rule:evenodd;clip-rule:evenodd;stroke-linecap:round;stroke-linejoin:round;stroke-miterlimit:1.5;">
	<g transform="matrix(1,0,0,1,0,7)">
		<path d="M32,19L32,13" style="fill:none;stroke:black;stroke-width:4px;"/>
		<g transform="matrix(1,0,0,1,0,32)">
			<path d="M32,19L32,13" style="fill:none;stroke:black;stroke-width:4px;"/>
		</g>
		<g transform="matrix(1,0,0,1.14286,0,-3.57143)">
			<path d="M64,51.25C64,48.352 61.311,46 58,46L6,46C2.689,46 0,48.352 0,51.25L0,53L64,53L64,51.25Z"/>
		</g>
		<g transform="matrix(0.964286,0,0,0.964286,1.14286,15.1429)">
			<path d="M60,32L4,32C4,16.546 16.546,4 32,4C47.454,4 60,16.546 60,32Z" style="fill:white;stroke:black;stroke-width:2.07px;"/>
		</g>
		<g transform="matrix(1,0,0,1,0,1)">
			<path d="M38,12C38,11.448 37.552,11 37,11L27,11C26.448,11 26,11.448 26,12C26,12.552 26.448,13 27,13L37,13C37.552,13 38,12.552 38,12Z" style="fill:rgb(186,186,186);stroke:black;stroke-width:4px;"/>
		</g>
	</g>
	<g transform="matrix(1,0,0,1,3,-1)">
		<path d="M8,50C9.14,43.527 12.825,38.297 18,35" style="fill:none;stroke:black;stroke-width:2px;"/>
	</g>
	<g transform="matrix(1,0,0,1,0,6)">
		<g transform="matrix(1,0,0,1,2,-1)">
			<path d="M47,16L57,6.989" style="fill:none;stroke:black;stroke-width:2px;"/>
		</g>
		<g transform="matrix(-1,0,0,1,62,-1)">
			<path d="M47,16L57,6.989" style="fill:none;stroke:black;stroke-width:2px;"/>
		</g>
		<g transform="matrix(1,0,0,1,1,-3)">
			<path d="M56,26L62,24" style="fill:none;stroke:black;stroke-width:2px;"/>
		</g>
		<g transform="matrix(-1,0,0,1,63,-3)">
			<path d="M56,26L62,24" style="fill:none;stroke:black;stroke-width:2px;"/>
		</g>
		<g transform="matrix(1,0,0,1,8,-7)">
			<path d="M32,11L35,2" style="fill:none;stroke:black;stroke-width:2px;"/>
		</g>
		<g transform="matrix(1,0,0,-1,-11,6)">
			<path d="M32,11L35,2" style="fill:none;stroke:black;stroke-width:2px;"/>
		</g>
	</g>
</svg>
